<svg width="16" height="16" viewBox="0 0 16 16" fill="none" xmlns="http://www.w3.org/2000/svg">
<path d="M11.5292 3.52734C11.7896 3.26693 12.2125 3.26693 12.4729 3.52734C12.7334 3.78776 12.7334 4.21068 12.4729 4.47109L8.94377 7.99818L12.4709 11.5273C12.7313 11.7878 12.7313 12.2107 12.4709 12.4711C12.2104 12.7315 11.7875 12.7315 11.5271 12.4711L8.00002 8.94193L4.47085 12.469C4.21043 12.7294 3.78752 12.7294 3.5271 12.469C3.26668 12.2086 3.26668 11.7857 3.5271 11.5253L7.05627 7.99818L3.52918 4.46901C3.26877 4.20859 3.26877 3.78776 3.52918 3.52734C3.7896 3.26693 4.21252 3.26693 4.47293 3.52734L8.00002 7.05443L11.5292 3.52734Z" fill="black"/>
</svg>
