<svg width="11" height="9" viewBox="0 0 11 9" fill="none" xmlns="http://www.w3.org/2000/svg">
<g clip-path="url(#clip0_7672_85585)">
<path d="M8.75001 0.709731C8.75001 0.542152 8.67384 0.384731 8.54181 0.283168C8.40978 0.181606 8.23882 0.144366 8.07632 0.184991L5.90965 0.726658C5.66928 0.785902 5.50001 1.00257 5.50001 1.2514V2.33473V3.98512L0.740118 0.254392C0.564076 0.11559 0.308477 0.147751 0.169675 0.323793C0.0308731 0.499835 0.0630346 0.755434 0.239076 0.894236L10.2599 8.7484C10.436 8.8872 10.6915 8.85504 10.8304 8.679C10.9692 8.50296 10.937 8.24736 10.761 8.10856L6.58335 4.83486V2.75791L8.34038 2.3178C8.58074 2.25856 8.75001 2.04189 8.75001 1.79306V0.709731ZM4.68751 6.1264C3.63973 6.1264 2.79168 6.73239 2.79168 7.48056C2.79168 8.22874 3.63973 8.83473 4.68751 8.83473C5.7353 8.83473 6.58335 8.22874 6.58335 7.48056V7.12848L5.46277 6.24489C5.22579 6.16872 4.96342 6.1264 4.68751 6.1264Z" fill="black"/>
</g>
<defs>
<clipPath id="clip0_7672_85585">
<rect width="11" height="9" fill="white"/>
</clipPath>
</defs>
</svg>
