<svg width="11" height="9" viewBox="0 0 11 9" fill="none" xmlns="http://www.w3.org/2000/svg">
<g clip-path="url(#clip0_7672_85582)">
<path d="M8.74996 0.708854C8.74996 0.541276 8.67379 0.383854 8.54176 0.282292C8.40972 0.180729 8.23876 0.143489 8.07626 0.184114L5.90959 0.725781C5.66923 0.785026 5.49996 1.00169 5.49996 1.25052V2.33385V6.25586C5.25452 6.17292 4.9786 6.12552 4.68746 6.12552C3.63967 6.12552 2.79163 6.73151 2.79163 7.47969C2.79163 8.22786 3.63967 8.83385 4.68746 8.83385C5.73525 8.83385 6.58329 8.22786 6.58329 7.47969V2.75703L8.34032 2.31693C8.58069 2.25768 8.74996 2.04102 8.74996 1.79219V0.708854Z" fill="black"/>
</g>
<defs>
<clipPath id="clip0_7672_85582">
<rect width="11" height="9" fill="white"/>
</clipPath>
</defs>
</svg>
